<?xml version="1.0" encoding="utf-8"?>
<!-- Generator: Adobe Illustrator 15.0.2, SVG Export Plug-In  -->
<!DOCTYPE svg PUBLIC "-//W3C//DTD SVG 1.1//EN" "http://www.w3.org/Graphics/SVG/1.1/DTD/svg11.dtd" [
	<!ENTITY ns_flows "http://ns.adobe.com/Flows/1.0/">
]>
<svg version="1.1"
	 xmlns="http://www.w3.org/2000/svg" xmlns:xlink="http://www.w3.org/1999/xlink" xmlns:a="http://ns.adobe.com/AdobeSVGViewerExtensions/3.0/"
	 x="0px" y="0px" width="113px" height="113px" viewBox="-28.557 -35.538 113 113"
	 overflow="visible" enable-background="new -28.557 -35.538 113 113" xml:space="preserve">
<defs>
</defs>
<path fill="#77C5D3" d="M43.346,29.674c-0.604-0.602-1.656-0.604-2.264,0.002c-0.301,0.302-0.467,0.704-0.467,1.132
	c0,0.429,0.166,0.83,0.468,1.131l11.393,11.389c0.038,0.071,0.014,0.313-0.121,0.447l-8.503,8.603
	c-0.052,0.05-0.295,0.187-0.618,0.187c-0.15,0-0.357-0.029-0.498-0.17c-0.098-0.104-0.607-0.647-1.448-1.53l5.683-5.684
	c0.621-0.622,0.621-1.637-0.002-2.264c-0.604-0.602-1.655-0.603-2.263,0.001l-5.634,5.634c-0.821-0.85-1.763-1.819-2.801-2.88
	l2.19-2.19c0.622-0.62,0.624-1.634,0.002-2.261c-0.603-0.604-1.66-0.607-2.265-0.001l-2.172,2.171
	c-0.665-0.672-1.357-1.369-2.076-2.086c-0.604-0.606-1.658-0.61-2.267,0c-0.62,0.624-0.62,1.639,0.002,2.262
	c6.312,6.311,10.707,11.012,10.765,11.074c0.725,0.726,1.713,1.125,2.783,1.125c1.103,0,2.182-0.422,2.889-1.132l8.501-8.602
	c1.374-1.374,1.436-3.64,0.133-4.948L43.346,29.674z"/>
<path fill="#77C5D3" d="M12.461,26.345c0.301,0.301,0.703,0.467,1.132,0.467c0.426,0,0.827-0.165,1.134-0.468
	c0.303-0.304,0.469-0.707,0.468-1.136c-0.001-0.427-0.168-0.828-0.468-1.127c-0.782-0.782-1.534-1.531-2.255-2.248l2.172-2.171
	c0.623-0.624,0.622-1.64,0.001-2.261c-0.604-0.607-1.662-0.607-2.266-0.002l-2.183,2.184c-1.062-1.048-2.026-1.992-2.867-2.814
	l5.614-5.614c0.621-0.624,0.62-1.639,0-2.259c-0.605-0.606-1.662-0.608-2.266-0.002L5.029,14.54l-1.446-1.395
	c-0.075-0.075-0.199-0.271-0.232-0.5c-0.035-0.24,0.039-0.443,0.233-0.639l8.512-8.511c0.071-0.072,0.325-0.311,0.584-0.311
	c0.156,0,0.329,0.094,0.521,0.289c1.092,1.229,5.104,5.688,10.886,11.469c0.605,0.607,1.658,0.606,2.265,0.001
	c0.303-0.302,0.469-0.704,0.469-1.131c0-0.428-0.166-0.83-0.469-1.132C20.177,6.509,15.993,1.801,15.493,1.236
	C14.683,0.428,13.714,0,12.693,0c-1.035,0-2.08,0.451-2.866,1.237L1.318,9.744c-1.772,1.773-1.385,4.28,0.029,5.694
	C1.387,15.475,5.999,19.881,12.461,26.345z"/>
<path fill="#585D67" d="M48.982,20.809l6.157-6.156c0.643-0.646,0.996-1.5,0.996-2.404c0-0.906-0.354-1.76-0.998-2.403l-8.908-8.903
	c-1.232-1.234-3.577-1.234-4.808,0l-6.354,6.354c-0.076,0.075-0.129,0.151-0.168,0.215L5.843,36.568
	c-0.18,0.181-0.313,0.401-0.387,0.632L0.079,53.731c-0.185,0.566-0.041,1.184,0.377,1.614c0.303,0.309,0.709,0.479,1.144,0.479
	c0.167,0,0.326-0.023,0.458-0.066l17.009-5.067c0.264-0.076,0.503-0.221,0.684-0.408l29.062-29.257
	C48.896,20.945,48.949,20.864,48.982,20.809z M45.431,19.888L19.22,46.277l-0.506-1.752l25.842-25.513L45.431,19.888z
	 M13.408,42.451v-2.91l25.805-25.873l3.079,3.08L16.256,42.451H13.408z M11.808,45.652h3.902l0.716,2.487L4.065,51.82l3.979-12.229
	l2.162,0.49v3.97C10.207,44.935,10.925,45.652,11.808,45.652z M10.15,36.786l26.09-26.09l0.708,0.709L11.36,37.062L10.15,36.786z
	 M52.933,12.251c0,0.054-0.021,0.104-0.058,0.142L47.669,17.6l-9.188-9.188l5.208-5.209c0.062-0.062,0.213-0.064,0.279,0.002
	l8.904,8.904C52.913,12.148,52.933,12.196,52.933,12.251z"/>
</svg>
