<?xml version="1.0" encoding="utf-8"?>
<!-- Generator: Adobe Illustrator 15.0.2, SVG Export Plug-In  -->
<!DOCTYPE svg PUBLIC "-//W3C//DTD SVG 1.1//EN" "http://www.w3.org/Graphics/SVG/1.1/DTD/svg11.dtd" [
	<!ENTITY ns_flows "http://ns.adobe.com/Flows/1.0/">
]>
<svg version="1.1"
	 xmlns="http://www.w3.org/2000/svg" xmlns:xlink="http://www.w3.org/1999/xlink" xmlns:a="http://ns.adobe.com/AdobeSVGViewerExtensions/3.0/"
	 x="0px" y="0px" width="113px" height="113px" viewBox="-9.315 -12.032 113 113"
	 overflow="visible" enable-background="new -9.315 -12.032 113 113" xml:space="preserve">
<defs>
</defs>
<path fill="#575D67" stroke="#585D67" stroke-width="2" stroke-miterlimit="10" d="M69.401,67.515L20.79,54.373l-0.228-0.469
	c-0.11-0.225-10.887-22.865,6.819-38.788c6.776-6.095,22.562-3.126,28.767-1.646l0.002-0.007l1.43,0.36l0.245,0.067l0.231,0.062
	l1.415,0.416c6.104,1.847,21.235,7.237,24.019,15.916c7.27,22.676-13.447,36.802-13.654,36.94L69.401,67.515z M22.415,52.435
	l46.565,12.59c2.881-2.081,18.586-14.508,12.325-34.039c-2.686-8.377-20.09-13.74-23.551-14.73l-0.753-0.211l-0.321-0.08
	c-3.488-0.889-21.224-5.025-27.765,0.857C13.836,30.383,21.046,49.257,22.415,52.435z"/>
<polygon fill="#77C5D3" stroke="#585D67" stroke-width="2" stroke-miterlimit="10" points="12.439,30.137 87.723,50.49 
	94.483,60.636 2.592,35.792 "/>
<path fill="#575D67" stroke="#585D67" stroke-width="2" stroke-miterlimit="10" d="M94.206,61.748
	c-0.006-0.001-0.013-0.004-0.022-0.006L2.293,36.899c-0.448-0.121-0.779-0.502-0.839-0.961c-0.06-0.461,0.164-0.91,0.566-1.143
	l9.848-5.652c0.265-0.152,0.575-0.193,0.871-0.113l75.282,20.354c0.268,0.071,0.5,0.239,0.653,0.47l6.669,10.004
	c0.262,0.281,0.376,0.687,0.269,1.083C95.447,61.552,94.818,61.914,94.206,61.748z M5.563,35.407l86.273,23.324l-4.831-7.246
	L12.599,31.369L5.563,35.407z"/>
<path fill="#575D67" stroke="#585D67" stroke-width="2" stroke-miterlimit="10" d="M37.482,29.778
	c-2.442-0.66-3.891-3.184-3.231-5.627c0.661-2.441,3.185-3.891,5.626-3.23c2.443,0.661,3.893,3.183,3.231,5.626
	C42.448,28.989,39.926,30.438,37.482,29.778z M39.278,23.135c-1.22-0.329-2.482,0.396-2.812,1.615
	c-0.331,1.223,0.396,2.483,1.615,2.813s2.483-0.395,2.812-1.615C41.225,24.729,40.499,23.465,39.278,23.135z"/>
<path fill="#575D67" stroke="#585D67" stroke-width="2" stroke-miterlimit="10" d="M52.43,33.819
	c-2.443-0.661-3.893-3.184-3.231-5.626c0.66-2.443,3.184-3.893,5.626-3.231c2.441,0.66,3.891,3.183,3.23,5.625
	C57.394,33.03,54.872,34.479,52.43,33.819z M54.226,27.177c-1.221-0.331-2.482,0.396-2.813,1.615
	c-0.33,1.221,0.396,2.482,1.616,2.813c1.22,0.329,2.481-0.396,2.812-1.616C56.169,28.769,55.445,27.507,54.226,27.177z"/>
<path fill="#575D67" stroke="#585D67" stroke-width="2" stroke-miterlimit="10" d="M67.377,37.859
	c-2.443-0.659-3.893-3.183-3.231-5.626c0.66-2.441,3.183-3.891,5.626-3.23c2.442,0.66,3.892,3.183,3.231,5.626
	C72.342,37.071,69.818,38.521,67.377,37.859z M69.173,31.217c-1.22-0.329-2.483,0.396-2.812,1.615
	c-0.331,1.223,0.394,2.484,1.615,2.813c1.221,0.33,2.482-0.394,2.812-1.615C71.117,32.81,70.394,31.547,69.173,31.217z"/>
<path fill="#575D67" stroke="#585D67" stroke-width="2" stroke-miterlimit="10" d="M22.232,66.644
	c-0.283-0.077-0.538-0.263-0.695-0.536c-0.315-0.55-0.125-1.251,0.424-1.566l14.064-8.077c0.55-0.315,1.25-0.126,1.565,0.423
	c0.315,0.55,0.126,1.249-0.424,1.564L23.103,66.53C22.828,66.688,22.516,66.72,22.232,66.644z"/>
<path fill="#575D67" stroke="#585D67" stroke-width="2" stroke-miterlimit="10" d="M30.535,68.888l-19.614-5.303
	c-0.611-0.166-0.973-0.794-0.808-1.406c0.166-0.612,0.795-0.974,1.406-0.809l19.614,5.304c0.611,0.165,0.973,0.793,0.807,1.406
	C31.775,68.692,31.147,69.054,30.535,68.888z"/>
<path fill="#575D67" stroke="#585D67" stroke-width="2" stroke-miterlimit="10" d="M61.973,77.388
	c-0.281-0.076-0.536-0.262-0.693-0.536L53.2,62.787c-0.315-0.55-0.126-1.25,0.423-1.565c0.55-0.314,1.25-0.126,1.565,0.424
	l8.078,14.063c0.317,0.55,0.127,1.25-0.423,1.566C62.57,77.432,62.258,77.464,61.973,77.388z"/>
<path fill="#575D67" stroke="#585D67" stroke-width="2" stroke-miterlimit="10" d="M73.284,80.445l-19.612-5.303
	c-0.612-0.166-0.974-0.794-0.809-1.406c0.166-0.612,0.795-0.974,1.407-0.808l19.612,5.303c0.613,0.166,0.974,0.794,0.81,1.406
	C74.526,80.25,73.897,80.611,73.284,80.445z"/>
<path fill="#575D67" stroke="#585D67" stroke-width="2" stroke-miterlimit="10" d="M58.864,10.017
	c-2.441-0.659-3.893-3.183-3.231-5.625s3.184-3.892,5.626-3.232c2.442,0.661,3.891,3.184,3.23,5.626
	C63.828,9.229,61.307,10.678,58.864,10.017z M60.66,3.374c-1.221-0.329-2.482,0.396-2.812,1.615
	c-0.33,1.222,0.395,2.483,1.615,2.814c1.22,0.329,2.481-0.396,2.812-1.617C62.605,4.967,61.881,3.704,60.66,3.374z"/>
<path fill="#575D67" stroke="#585D67" stroke-width="2" stroke-miterlimit="10" d="M57.218,16.104
	c-0.611-0.165-0.972-0.795-0.808-1.406l1.646-6.088c0.165-0.612,0.795-0.974,1.406-0.807c0.612,0.164,0.973,0.793,0.807,1.405
	l-1.646,6.087C58.46,15.907,57.83,16.271,57.218,16.104z"/>
</svg>
