<?xml version="1.0" encoding="utf-8"?>
<!-- Generator: Adobe Illustrator 15.0.2, SVG Export Plug-In  -->
<!DOCTYPE svg PUBLIC "-//W3C//DTD SVG 1.1//EN" "http://www.w3.org/Graphics/SVG/1.1/DTD/svg11.dtd" [
	<!ENTITY ns_flows "http://ns.adobe.com/Flows/1.0/">
]>
<svg version="1.1"
	 xmlns="http://www.w3.org/2000/svg" xmlns:xlink="http://www.w3.org/1999/xlink" xmlns:a="http://ns.adobe.com/AdobeSVGViewerExtensions/3.0/"
	 x="0px" y="0px" width="113px" height="113px" viewBox="-27.468 -26.283 113 113"
	 overflow="visible" enable-background="new -27.468 -26.283 113 113" xml:space="preserve">
<defs>
</defs>
<path fill="#575D67" d="M52.606,56.503H5.845C2.616,56.503,0,53.886,0,50.658V23.381c0-3.229,2.616-5.846,5.845-5.846h46.762
	c3.228,0,5.845,2.617,5.845,5.846v27.277C58.451,53.886,55.834,56.503,52.606,56.503z M13.639,31.254
	c-3.229,0-5.846,3.052-5.846,6.819s2.616,6.819,5.846,6.819c3.229,0,5.845-3.052,5.845-6.819S16.865,31.254,13.639,31.254z
	 M28.796,32.926c-0.223-0.463-0.521-0.823-0.891-1.079c-0.371-0.257-0.829-0.43-1.378-0.521c-0.391-0.072-0.955-0.109-1.695-0.109
	h-3.474v13.472h1.965v-3.927h1.64c1.578,0,2.665-0.693,3.271-1.351c0.601-0.659,0.903-3.53,0.903-4.48
	C29.137,34.383,29.023,33.386,28.796,32.926z M39.014,42.759h-5.958v-3.913h5.76v-1.812h-5.76v-4.004h5.942v-1.813h-7.782v13.472
	h7.798V42.759z M50.568,31.22h-1.78v10.346l-5.87-10.346h-2v13.473h1.905v-9.863l5.867,9.863h1.88V31.22H50.568z M24.984,38.831
	h-1.661v-5.799h1.633c0.666,0,1.126,0.032,1.373,0.099c0.385,0.106,0.697,0.322,0.934,0.654c0.235,0.331,0.354,0.73,0.354,1.195
	c0,0.643-0.202,2.964-0.602,3.319C26.613,38.654,25.938,38.831,24.984,38.831z M13.639,43.108c-2.15,0-3.896-2.181-3.896-4.871
	c0-2.689,1.746-4.87,3.896-4.87c2.149,0,3.897,2.181,3.897,4.87C17.536,40.928,15.788,43.108,13.639,43.108z M46.762,17.535
	L32.495,6.916c-0.67,0.541-1.512,0.878-2.437,0.878c-1.29,0-2.424-0.634-3.131-1.599l-15.238,11.34H9.742L26.29,4.837
	c-0.074-0.303-0.128-0.615-0.128-0.94C26.162,1.747,27.909,0,30.059,0c2.154,0,3.897,1.747,3.897,3.896
	c0,0.701-0.199,1.348-0.523,1.918l15.276,11.721H46.762z"/>
</svg>
