<?xml version="1.0" encoding="utf-8"?>
<!-- Generator: Adobe Illustrator 15.0.2, SVG Export Plug-In  -->
<!DOCTYPE svg PUBLIC "-//W3C//DTD SVG 1.1//EN" "http://www.w3.org/Graphics/SVG/1.1/DTD/svg11.dtd" [
	<!ENTITY ns_flows "http://ns.adobe.com/Flows/1.0/">
]>
<svg version="1.1"
	 xmlns="http://www.w3.org/2000/svg" xmlns:xlink="http://www.w3.org/1999/xlink" xmlns:a="http://ns.adobe.com/AdobeSVGViewerExtensions/3.0/"
	 x="0px" y="0px" width="64px" height="62px" viewBox="-6.12 -2.77 64 62"
	 overflow="visible" enable-background="new -6.12 -2.77 64 62" xml:space="preserve">
<defs>
</defs>
<circle fill="#575D67" cx="25.889" cy="2.62" r="2.621"/>
<circle fill="#575D67" cx="25.889" cy="7.713" r="1.184"/>
<circle fill="#575D67" cx="18.875" cy="8.779" r="2.62"/>
<circle fill="#575D67" cx="33.209" cy="8.779" r="2.62"/>
<circle fill="#575D67" cx="25.889" cy="15.293" r="2.621"/>
<circle fill="#575D67" cx="30.311" cy="12.173" r="0.989"/>
<circle fill="#575D67" cx="21.496" cy="12.173" r="0.989"/>
<circle fill="#575D67" cx="25.889" cy="28.585" r="2.621"/>
<circle fill="#575D67" cx="25.889" cy="23.492" r="1.184"/>
<circle fill="#575D67" cx="33.209" cy="22.426" r="2.62"/>
<circle fill="#575D67" cx="21.496" cy="18.954" r="0.989"/>
<circle fill="#575D67" cx="30.311" cy="19.032" r="0.989"/>
<circle fill="#575D67" cx="38.918" cy="15.293" r="2.62"/>
<circle fill="#575D67" cx="34.18" cy="15.293" r="1.185"/>
<circle fill="#575D67" cx="12.598" cy="15.293" r="2.62"/>
<circle fill="#575D67" cx="17.336" cy="15.293" r="1.185"/>
<circle fill="#575D67" cx="18.52" cy="22.426" r="2.62"/>
<rect y="33.06" fill="none" width="51.517" height="28.16"/>
<text transform="matrix(1 0 0 1 8.7002 41.582)"><tspan x="0" y="0" fill="#FFFFFF" font-family="'MyriadPro-Regular'" font-size="12">GLYPH </tspan><tspan x="-8.088" y="14.4" fill="#FFFFFF" font-family="'MyriadPro-Regular'" font-size="12">TUTORIAL</tspan></text>
</svg>
