<?xml version="1.0" encoding="utf-8"?>
<!-- Generator: Adobe Illustrator 15.0.2, SVG Export Plug-In  -->
<!DOCTYPE svg PUBLIC "-//W3C//DTD SVG 1.1//EN" "http://www.w3.org/Graphics/SVG/1.1/DTD/svg11.dtd" [
	<!ENTITY ns_flows "http://ns.adobe.com/Flows/1.0/">
]>
<svg version="1.1"
	 xmlns="http://www.w3.org/2000/svg" xmlns:xlink="http://www.w3.org/1999/xlink" xmlns:a="http://ns.adobe.com/AdobeSVGViewerExtensions/3.0/"
	 x="0px" y="0px" width="207px" height="360px" viewBox="-16.5 -12.498 207 360"
	 overflow="visible" enable-background="new -16.5 -12.498 207 360" xml:space="preserve">
<defs>
</defs>
<circle fill="#FFFFFF" cx="89.5" cy="89.5" r="89.5"/>
<path fill="#FFFFFF" d="M82.748,193.165l-25.84,67.83h-2.09l-26.506-67.83h1.805l25.65,65.36h0.189l24.891-65.36H82.748z"/>
<path fill="#FFFFFF" d="M88.066,193.165v67.83h-1.899v-67.83H88.066z"/>
<path fill="#FFFFFF" d="M141.693,203.378c-1.172-2.375-2.724-4.307-4.654-5.795c-1.934-1.487-4.228-2.549-6.888-3.183
	c-2.66-0.633-5.511-0.95-8.55-0.95c-2.344,0-4.783,0.237-7.315,0.713c-2.534,0.475-4.83,1.314-6.888,2.517
	c-2.059,1.204-3.752,2.803-5.082,4.798s-1.995,4.513-1.995,7.553s0.68,5.479,2.042,7.314c1.361,1.838,3.136,3.325,5.32,4.466
	c2.186,1.14,4.67,2.027,7.457,2.659c2.787,0.634,5.637,1.299,8.551,1.995c3.166,0.824,6.158,1.615,8.978,2.375
	c2.817,0.761,5.272,1.774,7.362,3.04c2.09,1.268,3.752,2.945,4.987,5.035s1.853,4.909,1.853,8.455c0,3.23-0.697,5.985-2.09,8.265
	c-1.394,2.28-3.23,4.165-5.51,5.653c-2.28,1.488-4.846,2.564-7.695,3.229s-5.732,0.997-8.645,0.997
	c-3.864,0-7.427-0.443-10.688-1.329c-3.264-0.887-6.08-2.295-8.455-4.228c-2.375-1.932-4.213-4.418-5.51-7.458
	c-1.299-3.04-1.917-6.712-1.854-11.02h1.9c0,4.054,0.602,7.49,1.805,10.308c1.203,2.818,2.898,5.114,5.083,6.887
	c2.185,1.774,4.781,3.057,7.79,3.848c3.008,0.793,6.317,1.188,9.928,1.188c2.66,0,5.303-0.3,7.932-0.902
	c2.628-0.602,4.988-1.567,7.078-2.897s3.783-3.04,5.082-5.13c1.298-2.09,1.947-4.592,1.947-7.505c0-3.42-0.744-6.128-2.232-8.123
	s-3.389-3.577-5.699-4.75c-2.312-1.171-4.878-2.057-7.695-2.66c-2.818-0.601-5.526-1.218-8.123-1.853
	c-2.723-0.632-5.447-1.297-8.17-1.994c-2.723-0.696-5.177-1.663-7.361-2.897c-2.186-1.235-3.943-2.882-5.273-4.94
	c-1.33-2.058-1.994-4.733-1.994-8.027c0-3.356,0.695-6.159,2.09-8.407c1.393-2.248,3.197-4.038,5.414-5.368s4.703-2.279,7.458-2.85
	s5.493-0.855,8.218-0.855c3.355,0,6.443,0.365,9.262,1.093c2.818,0.729,5.288,1.9,7.41,3.515c2.121,1.615,3.815,3.738,5.083,6.365
	c1.267,2.629,1.995,5.843,2.185,9.643h-1.9C143.514,208.683,142.865,205.753,141.693,203.378z"/>
<path fill="#FFFFFF" d="M54.984,307.777H30.15c-0.036-1.554,0.289-2.963,0.977-4.229c0.686-1.265,1.59-2.448,2.711-3.552
	c1.12-1.102,2.377-2.149,3.769-3.145c1.392-0.994,2.774-1.979,4.147-2.955c1.41-0.977,2.783-1.97,4.121-2.982
	c1.338-1.012,2.53-2.069,3.579-3.172c1.048-1.103,1.889-2.277,2.521-3.524c0.632-1.247,0.948-2.594,0.948-4.04
	c0-1.445-0.262-2.72-0.785-3.822c-0.525-1.103-1.239-2.024-2.143-2.766c-0.904-0.741-1.979-1.302-3.227-1.682
	c-1.246-0.379-2.611-0.568-4.094-0.568c-1.916,0-3.561,0.289-4.934,0.867c-1.375,0.578-2.494,1.383-3.362,2.413
	c-0.867,1.03-1.5,2.26-1.897,3.687c-0.398,1.429-0.597,2.992-0.597,4.69h-1.084c0.035-4.048,1.038-7.185,3.009-9.407
	c1.971-2.224,4.926-3.335,8.865-3.335c1.591,0,3.072,0.208,4.447,0.624c1.373,0.416,2.566,1.039,3.578,1.87
	c1.012,0.832,1.816,1.862,2.413,3.091c0.597,1.229,0.895,2.676,0.895,4.338c0,2.025-0.542,3.869-1.626,5.531
	c-1.085,1.663-2.449,3.218-4.094,4.663c-1.646,1.446-3.426,2.811-5.342,4.094c-1.916,1.284-3.714,2.567-5.395,3.85
	c-1.682,1.283-3.118,2.603-4.311,3.958c-1.193,1.356-1.863,2.829-2.007,4.42h23.749V307.777z"/>
<path fill="#FFFFFF" d="M85.648,296.228c-0.453,2.278-1.221,4.32-2.305,6.128s-2.513,3.263-4.283,4.365
	c-1.771,1.102-3.995,1.653-6.67,1.653c-2.639,0-4.854-0.552-6.643-1.653c-1.789-1.103-3.227-2.558-4.311-4.365
	s-1.854-3.85-2.305-6.128c-0.452-2.276-0.678-4.572-0.678-6.886s0.226-4.609,0.678-6.887c0.451-2.277,1.221-4.319,2.305-6.127
	s2.521-3.271,4.311-4.393c1.789-1.12,4.004-1.681,6.643-1.681c2.675,0,4.898,0.561,6.67,1.681c1.771,1.121,3.199,2.585,4.283,4.393
	s1.852,3.85,2.305,6.127c0.451,2.277,0.678,4.573,0.678,6.887S86.1,293.951,85.648,296.228z M84.645,283.052
	c-0.398-2.133-1.084-4.067-2.061-5.802c-0.975-1.735-2.286-3.153-3.931-4.257c-1.646-1.103-3.733-1.653-6.263-1.653
	c-2.531,0-4.618,0.551-6.263,1.653c-1.646,1.104-2.956,2.521-3.932,4.257c-0.976,1.734-1.663,3.669-2.06,5.802
	c-0.398,2.134-0.598,4.229-0.598,6.29s0.199,4.157,0.598,6.29c0.396,2.134,1.084,4.066,2.06,5.802s2.286,3.154,3.932,4.257
	c1.645,1.103,3.731,1.653,6.263,1.653c2.529,0,4.617-0.551,6.263-1.653c1.645-1.103,2.956-2.521,3.931-4.257
	c0.977-1.735,1.662-3.668,2.061-5.802c0.398-2.133,0.598-4.229,0.598-6.29S85.043,285.186,84.645,283.052z"/>
<path fill="#FFFFFF" d="M103.515,272.315c-1.12,1.555-2.575,2.9-4.364,4.04c-1.79,1.139-3.606,1.961-5.45,2.467v-1.084
	c1.12-0.361,2.114-0.76,2.982-1.193s1.681-0.922,2.44-1.464c0.759-0.543,1.49-1.157,2.195-1.844s1.438-1.464,2.196-2.331h1.192
	v36.871h-1.084v-35.462H103.515z"/>
<path fill="#FFFFFF" d="M119.457,296.879l18.436-25.973h1.355v26.189h6.67v1.084h-6.67v9.598h-1.084v-9.598h-18.707V296.879z
	 M138.055,272.424l-17.514,24.672h17.623v-24.672H138.055z"/>
<circle fill="#575D67" cx="89.5" cy="89.5" r="86"/>
<circle fill="#77C5D3" cx="89.5" cy="89.5" r="80.5"/>
<path fill="#575D67" d="M101,158.505v-3.599h-1.703c-1.932-4.285-3.616-8.806-4.385-12.822h0.302c0.407,0,0.734-1.247,0.734-1.247
	c0-0.357-0.328-0.647-0.734-0.647h-0.622c-0.755-4.733-3.627-23.793-3.526-38.131h0.097c0.405,0,0.732-2.607,0.732-2.607
	c0-0.28-0.205-0.521-0.494-0.609c0.051-0.09,0.082-0.189,0.082-0.297v-0.453c0-0.357-0.33-0.646-0.733-0.646h-0.239
	c0.04-0.066,0.062-0.143,0.062-0.221c0-0.255-0.234-0.461-0.523-0.461h-0.221v-2.963c0-0.116-0.078-0.217-0.191-0.266v-3.184h-0.277
	v3.184c-0.113,0.049-0.191,0.149-0.191,0.266v2.963h-0.221c-0.289,0-0.523,0.206-0.523,0.461c0,0.078,0.022,0.154,0.062,0.221H88.25
	c-0.406,0-0.733,0.289-0.733,0.646v0.453c0,0.107,0.03,0.207,0.08,0.297c-0.288,0.088-0.494,0.329-0.494,0.609
	c0,0,0.33,2.607,0.734,2.607h0.096c0.102,14.338-2.773,33.397-3.526,38.131h-0.563c-0.405,0-0.734,0.29-0.734,0.647
	c0,0,0.329,1.247,0.734,1.247h0.244c-0.771,4.017-2.456,8.537-4.388,12.822h-1.752v3.701c-3.679,7.439-7.529,13.382-7.529,13.382
	h7.639h0.369c0.136-5.594,5.041-10.087,11.073-10.087c6.032,0,10.938,4.493,11.072,10.087h0.557h7.455
	C108.582,171.989,104.695,165.99,101,158.505z M85.228,155.004c0,0,1.875-7.044,1.984-8.89h4.52c0,0,1.321,7.091,2.038,8.89H85.228z
	"/>
<circle fill="#575D67" cx="89.685" cy="32.625" r="3.7"/>
<circle fill="#575D67" cx="89.685" cy="39.815" r="1.672"/>
<circle fill="#575D67" cx="79.782" cy="41.321" r="3.699"/>
<circle fill="#575D67" cx="100.02" cy="41.321" r="3.699"/>
<circle fill="#575D67" cx="89.685" cy="50.519" r="3.7"/>
<circle fill="#575D67" cx="95.929" cy="46.112" r="1.396"/>
<circle fill="#575D67" cx="83.482" cy="46.112" r="1.396"/>
<circle fill="#575D67" cx="89.685" cy="69.285" r="3.7"/>
<circle fill="#575D67" cx="89.685" cy="62.095" r="1.672"/>
<circle fill="#575D67" cx="100.02" cy="60.589" r="3.699"/>
<circle fill="#575D67" cx="83.482" cy="55.688" r="1.396"/>
<circle fill="#575D67" cx="95.929" cy="55.798" r="1.396"/>
<circle fill="#575D67" cx="108.081" cy="50.519" r="3.699"/>
<circle fill="#575D67" cx="101.391" cy="50.518" r="1.672"/>
<circle fill="#575D67" cx="70.919" cy="50.519" r="3.699"/>
<circle fill="#575D67" cx="77.609" cy="50.518" r="1.672"/>
<circle fill="#575D67" cx="79.28" cy="60.589" r="3.699"/>
<path fill="#77C5D3" d="M38.603,330.902c-0.663,0.256-1.989,0.629-3.536,0.629c-1.733,0-3.161-0.441-4.283-1.512
	c-0.986-0.953-1.598-2.482-1.598-4.268c0-3.416,2.362-5.916,6.204-5.916c1.326,0,2.38,0.289,2.873,0.527l-0.374,1.207
	c-0.612-0.289-1.377-0.492-2.533-0.492c-2.788,0-4.606,1.732-4.606,4.605c0,2.908,1.733,4.625,4.42,4.625
	c0.969,0,1.632-0.137,1.972-0.307v-3.416h-2.312v-1.191h3.774V330.902z"/>
<path fill="#77C5D3" d="M40.829,319.955h1.496v10.217h4.896v1.24h-6.392V319.955z"/>
<path fill="#77C5D3" d="M49.992,331.412v-4.861l-3.638-6.596h1.7l1.614,3.162c0.425,0.867,0.782,1.564,1.139,2.363h0.034
	c0.306-0.748,0.714-1.496,1.156-2.363l1.648-3.162h1.666l-3.824,6.578v4.879H49.992z"/>
<path fill="#77C5D3" d="M56.52,320.092c0.714-0.119,1.648-0.221,2.839-0.221c1.462,0,2.532,0.34,3.212,0.951
	c0.612,0.545,1.003,1.377,1.003,2.396c0,1.037-0.306,1.854-0.884,2.449c-0.799,0.832-2.057,1.258-3.501,1.258
	c-0.442,0-0.851-0.018-1.19-0.104v4.59H56.52V320.092z M57.998,325.615c0.323,0.086,0.731,0.119,1.224,0.119
	c1.785,0,2.873-0.883,2.873-2.43c0-1.529-1.088-2.262-2.702-2.262c-0.646,0-1.14,0.051-1.395,0.119V325.615z"/>
<path fill="#77C5D3" d="M67.042,319.955v4.795h5.542v-4.795h1.495v11.457h-1.495v-5.371h-5.542v5.371h-1.496v-11.457H67.042z"/>
<path fill="#77C5D3" d="M81.73,321.213h-3.484v-1.258h8.481v1.258h-3.501v10.199H81.73V321.213z"/>
<path fill="#77C5D3" d="M89.482,319.955v6.801c0,2.549,1.139,3.637,2.669,3.637c1.683,0,2.788-1.121,2.788-3.637v-6.801h1.495v6.697
	c0,3.52-1.853,4.947-4.334,4.947c-2.346,0-4.114-1.326-4.114-4.896v-6.748H89.482z"/>
<path fill="#77C5D3" d="M101.179,321.213h-3.484v-1.258h8.481v1.258h-3.501v10.199h-1.496V321.213z"/>
<path fill="#77C5D3" d="M116.784,325.564c0,3.928-2.396,6.035-5.32,6.035c-3.043,0-5.15-2.363-5.15-5.83
	c0-3.639,2.243-6.018,5.303-6.018C114.762,319.752,116.784,322.148,116.784,325.564z M107.877,325.734
	c0,2.465,1.326,4.658,3.672,4.658s3.672-2.158,3.672-4.76c0-2.295-1.19-4.674-3.655-4.674S107.877,323.236,107.877,325.734z"/>
<path fill="#77C5D3" d="M118.706,320.109c0.748-0.137,1.836-0.238,2.839-0.238c1.58,0,2.617,0.305,3.314,0.936
	c0.561,0.51,0.9,1.291,0.9,2.191c0,1.496-0.951,2.5-2.142,2.906v0.053c0.867,0.305,1.395,1.121,1.666,2.311
	c0.374,1.598,0.646,2.703,0.884,3.145h-1.529c-0.188-0.34-0.442-1.309-0.748-2.736c-0.34-1.58-0.969-2.176-2.312-2.227h-1.395v4.963
	h-1.479V320.109z M120.185,325.328h1.513c1.581,0,2.584-0.867,2.584-2.176c0-1.48-1.07-2.125-2.635-2.125
	c-0.714,0-1.207,0.051-1.462,0.119V325.328z"/>
<path fill="#77C5D3" d="M129.33,319.955v11.457h-1.496v-11.457H129.33z"/>
<path fill="#77C5D3" d="M133.767,327.809l-1.189,3.604h-1.53l3.91-11.457h1.768l3.909,11.457h-1.581l-1.224-3.604H133.767z
	 M137.54,326.652l-1.139-3.297c-0.255-0.748-0.425-1.428-0.595-2.092h-0.034c-0.17,0.664-0.34,1.377-0.578,2.074l-1.122,3.314
	H137.54z"/>
<path fill="#77C5D3" d="M142.301,319.955h1.496v10.217h4.896v1.24h-6.392V319.955z"/>
</svg>
