<?xml version="1.0" encoding="utf-8"?>
<!-- Generator: Adobe Illustrator 15.0.2, SVG Export Plug-In  -->
<!DOCTYPE svg PUBLIC "-//W3C//DTD SVG 1.1//EN" "http://www.w3.org/Graphics/SVG/1.1/DTD/svg11.dtd" [
	<!ENTITY ns_flows "http://ns.adobe.com/Flows/1.0/">
]>
<svg version="1.1"
	 xmlns="http://www.w3.org/2000/svg" xmlns:xlink="http://www.w3.org/1999/xlink" xmlns:a="http://ns.adobe.com/AdobeSVGViewerExtensions/3.0/"
	 x="0px" y="0px" width="113px" height="113px" viewBox="-14.065 -28.984 113 113"
	 overflow="visible" enable-background="new -14.065 -28.984 113 113" xml:space="preserve">
<defs>
</defs>
<path fill="#575D67" d="M82.209,0H3.047C1.371,0,0,1.369,0,3.044v51.767c0,1.673,1.371,3.045,3.047,3.045h33.487v3.047
	c0,6.089-5.944,6.089-5.944,6.089H19.349c-0.592,0-1.077,0.485-1.077,1.077v5.012h48.713v-5.012c0-0.592-0.488-1.077-1.08-1.077
	H54.804c0,0-6.089,0-6.089-6.089v-3.047h33.494c1.675,0,3.047-1.372,3.047-3.045V3.044C85.256,1.369,83.884,0,82.209,0
	 M79.164,54.811H76.12v-3.047h3.044V54.811z M79.164,48.719H6.089V6.089h73.075V48.719z"/>
<path fill="#77C5D3" d="M47.35,27.354c0.046-0.341,0.074-0.69,0.074-1.047s-0.028-0.707-0.074-1.05l-2.151-0.541
	c-0.141-0.521-0.348-1.015-0.612-1.475l1.142-1.898c-0.431-0.557-0.928-1.055-1.486-1.484l-1.899,1.139
	c-0.455-0.265-0.952-0.469-1.477-0.609l-0.539-2.154c-0.343-0.043-0.692-0.073-1.047-0.073c-0.359,0-0.706,0.03-1.047,0.073
	l-0.539,2.154c-0.524,0.141-1.02,0.345-1.477,0.609l-1.901-1.141c-0.555,0.428-1.054,0.927-1.481,1.484l1.139,1.9
	c-0.265,0.458-0.47,0.953-0.609,1.475l-2.152,0.541c-0.043,0.343-0.073,0.693-0.073,1.05s0.03,0.706,0.073,1.047l2.152,0.538
	c0.14,0.525,0.345,1.02,0.609,1.478l-1.139,1.901c0.428,0.557,0.927,1.054,1.481,1.484l1.901-1.14
	c0.457,0.263,0.952,0.47,1.477,0.607l0.539,2.154c0.341,0.041,0.688,0.073,1.047,0.073c0.354,0,0.704-0.032,1.047-0.073l0.539-2.154
	c0.524-0.14,1.021-0.345,1.477-0.609l1.903,1.142c0.555-0.431,1.054-0.928,1.482-1.487l-1.142-1.898
	c0.265-0.458,0.472-0.952,0.612-1.478L47.35,27.354z M39.279,29.156c-1.574,0-2.847-1.275-2.847-2.849
	c0-1.574,1.272-2.852,2.847-2.852c1.572,0,2.847,1.277,2.847,2.852C42.126,27.881,40.852,29.156,39.279,29.156"/>
<path fill="#77C5D3" d="M50.203,36.307c-0.17,0-0.336-0.014-0.502-0.035l-0.26-1.033l-0.034-0.009
	c-0.224-0.064-0.438-0.154-0.64-0.267l-0.032-0.02l-0.914,0.551c-0.285-0.229-0.513-0.461-0.711-0.716l0.546-0.911l-0.019-0.035
	c-0.113-0.202-0.203-0.416-0.263-0.637l-0.012-0.037l-1.03-0.258c-0.025-0.188-0.037-0.346-0.037-0.506
	c0-0.171,0.014-0.336,0.037-0.502l1.03-0.258l0.012-0.037c0.06-0.219,0.149-0.438,0.263-0.64l0.021-0.034l-0.548-0.912
	c0.226-0.282,0.453-0.513,0.714-0.711l0.911,0.546l0.034-0.021c0.203-0.11,0.417-0.198,0.638-0.26l0.034-0.012l0.26-1.033
	c0.191-0.023,0.346-0.035,0.502-0.035c0.173,0,0.339,0.014,0.507,0.035l0.257,1.033l0.04,0.012c0.216,0.062,0.43,0.149,0.635,0.26
	l0.034,0.021l0.909-0.546c0.288,0.227,0.518,0.456,0.716,0.711l-0.548,0.912l0.019,0.034c0.11,0.202,0.2,0.414,0.267,0.64
	l0.007,0.037l1.033,0.258c0.023,0.188,0.037,0.345,0.037,0.502c0,0.175-0.019,0.34-0.037,0.506l-1.033,0.258l-0.007,0.037
	c-0.066,0.223-0.156,0.437-0.267,0.637l-0.019,0.035l0.548,0.911c-0.226,0.285-0.456,0.516-0.713,0.716l-0.909-0.551l-0.037,0.02
	c-0.198,0.112-0.412,0.199-0.635,0.267l-0.04,0.009l-0.257,1.033C50.519,36.295,50.364,36.307,50.203,36.307 M50.203,30.933
	c-0.806,0-1.463,0.656-1.463,1.462c0,0.81,0.657,1.466,1.463,1.466c0.811,0,1.469-0.656,1.469-1.466
	C51.672,31.589,51.014,30.933,50.203,30.933"/>
</svg>
