<?xml version="1.0" encoding="utf-8"?>
<!-- Generator: Adobe Illustrator 15.0.2, SVG Export Plug-In  -->
<!DOCTYPE svg PUBLIC "-//W3C//DTD SVG 1.1//EN" "http://www.w3.org/Graphics/SVG/1.1/DTD/svg11.dtd" [
	<!ENTITY ns_flows "http://ns.adobe.com/Flows/1.0/">
]>
<svg version="1.1"
	 xmlns="http://www.w3.org/2000/svg" xmlns:xlink="http://www.w3.org/1999/xlink" xmlns:a="http://ns.adobe.com/AdobeSVGViewerExtensions/3.0/"
	 x="0px" y="0px" width="157px" height="281px" viewBox="-19.727 -23.252 157 281"
	 overflow="visible" enable-background="new -19.727 -23.252 157 281" xml:space="preserve">
<defs>
</defs>
<path fill="#FFFFFF" d="M54.436,112.928l-25.84,67.83h-2.09L0,112.928h1.805l25.65,65.36h0.189l24.891-65.36H54.436z"/>
<path fill="#FFFFFF" d="M59.754,112.928v67.83h-1.899v-67.83H59.754z"/>
<path fill="#FFFFFF" d="M113.381,123.141c-1.172-2.375-2.724-4.307-4.654-5.795c-1.934-1.487-4.228-2.549-6.888-3.183
	c-2.66-0.633-5.511-0.95-8.55-0.95c-2.344,0-4.783,0.237-7.315,0.713c-2.534,0.475-4.83,1.314-6.888,2.517
	c-2.059,1.204-3.752,2.803-5.082,4.798s-1.995,4.513-1.995,7.553s0.68,5.479,2.042,7.314c1.361,1.838,3.136,3.325,5.32,4.466
	c2.186,1.14,4.67,2.027,7.457,2.659c2.787,0.634,5.637,1.299,8.551,1.995c3.166,0.824,6.158,1.615,8.978,2.375
	c2.817,0.761,5.272,1.774,7.362,3.04c2.09,1.268,3.752,2.945,4.987,5.035s1.853,4.909,1.853,8.455c0,3.23-0.697,5.985-2.09,8.265
	c-1.394,2.28-3.23,4.165-5.51,5.653c-2.28,1.488-4.846,2.564-7.695,3.229s-5.732,0.997-8.645,0.997
	c-3.864,0-7.427-0.443-10.688-1.329c-3.264-0.887-6.08-2.295-8.455-4.228c-2.375-1.932-4.213-4.418-5.51-7.458
	c-1.299-3.04-1.917-6.712-1.854-11.02h1.9c0,4.054,0.602,7.49,1.805,10.308c1.203,2.818,2.898,5.114,5.083,6.887
	c2.185,1.774,4.781,3.057,7.79,3.848c3.008,0.793,6.317,1.188,9.928,1.188c2.66,0,5.303-0.3,7.932-0.902
	c2.628-0.602,4.988-1.567,7.078-2.897s3.783-3.04,5.082-5.13c1.298-2.09,1.947-4.592,1.947-7.505c0-3.42-0.744-6.128-2.232-8.123
	s-3.389-3.577-5.699-4.75c-2.312-1.171-4.878-2.057-7.695-2.66c-2.818-0.601-5.526-1.218-8.123-1.853
	c-2.723-0.632-5.447-1.297-8.17-1.994c-2.723-0.696-5.177-1.663-7.361-2.897c-2.186-1.235-3.943-2.882-5.273-4.94
	c-1.33-2.058-1.994-4.733-1.994-8.027c0-3.356,0.695-6.159,2.09-8.407c1.393-2.248,3.197-4.038,5.414-5.368s4.703-2.279,7.458-2.85
	s5.493-0.855,8.218-0.855c3.355,0,6.443,0.365,9.262,1.093c2.818,0.729,5.288,1.9,7.41,3.515c2.121,1.615,3.815,3.738,5.083,6.365
	c1.267,2.629,1.995,5.843,2.185,9.643h-1.9C115.201,128.445,114.553,125.516,113.381,123.141z"/>
<path fill="#FFFFFF" d="M26.672,227.54H1.838c-0.036-1.554,0.289-2.963,0.977-4.229c0.686-1.265,1.59-2.448,2.711-3.552
	c1.12-1.102,2.377-2.149,3.769-3.145c1.392-0.994,2.774-1.979,4.147-2.955c1.41-0.977,2.783-1.97,4.121-2.982
	c1.338-1.012,2.53-2.069,3.579-3.172c1.048-1.103,1.889-2.277,2.521-3.524c0.632-1.247,0.948-2.594,0.948-4.04
	c0-1.445-0.262-2.72-0.785-3.822c-0.525-1.103-1.239-2.024-2.143-2.766c-0.904-0.741-1.979-1.302-3.227-1.682
	c-1.246-0.379-2.611-0.568-4.094-0.568c-1.916,0-3.561,0.289-4.934,0.867c-1.375,0.578-2.494,1.383-3.362,2.413
	c-0.867,1.03-1.5,2.26-1.897,3.687c-0.398,1.429-0.597,2.992-0.597,4.69H2.489c0.035-4.048,1.038-7.185,3.009-9.407
	c1.971-2.224,4.926-3.335,8.865-3.335c1.591,0,3.072,0.208,4.447,0.624c1.373,0.416,2.566,1.039,3.578,1.87
	c1.012,0.832,1.816,1.862,2.413,3.091c0.597,1.229,0.895,2.676,0.895,4.338c0,2.025-0.542,3.869-1.626,5.531
	c-1.085,1.663-2.449,3.218-4.094,4.663c-1.646,1.446-3.426,2.811-5.342,4.094c-1.916,1.284-3.714,2.567-5.395,3.85
	c-1.682,1.283-3.118,2.603-4.311,3.958c-1.193,1.356-1.863,2.829-2.007,4.42h23.749V227.54z"/>
<path fill="#FFFFFF" d="M57.336,215.99c-0.453,2.278-1.221,4.32-2.305,6.128s-2.513,3.263-4.283,4.365
	c-1.771,1.102-3.995,1.653-6.67,1.653c-2.639,0-4.854-0.552-6.643-1.653c-1.789-1.103-3.227-2.558-4.311-4.365
	s-1.854-3.85-2.305-6.128c-0.452-2.276-0.678-4.572-0.678-6.886s0.226-4.609,0.678-6.887c0.451-2.277,1.221-4.319,2.305-6.127
	s2.521-3.271,4.311-4.393c1.789-1.12,4.004-1.681,6.643-1.681c2.675,0,4.898,0.561,6.67,1.681c1.771,1.121,3.199,2.585,4.283,4.393
	s1.852,3.85,2.305,6.127c0.451,2.277,0.678,4.573,0.678,6.887S57.787,213.714,57.336,215.99z M56.332,202.814
	c-0.398-2.133-1.084-4.067-2.061-5.802c-0.975-1.735-2.286-3.153-3.931-4.257c-1.646-1.103-3.733-1.653-6.263-1.653
	c-2.531,0-4.618,0.551-6.263,1.653c-1.646,1.104-2.956,2.521-3.932,4.257c-0.976,1.734-1.663,3.669-2.06,5.802
	c-0.398,2.134-0.598,4.229-0.598,6.29s0.199,4.157,0.598,6.29c0.396,2.134,1.084,4.066,2.06,5.802s2.286,3.154,3.932,4.257
	c1.645,1.103,3.731,1.653,6.263,1.653c2.529,0,4.617-0.551,6.263-1.653c1.645-1.103,2.956-2.521,3.931-4.257
	c0.977-1.735,1.662-3.668,2.061-5.802c0.398-2.133,0.598-4.229,0.598-6.29S56.73,204.948,56.332,202.814z"/>
<path fill="#FFFFFF" d="M75.202,192.078c-1.12,1.555-2.575,2.9-4.364,4.04c-1.79,1.139-3.606,1.961-5.45,2.467v-1.084
	c1.12-0.361,2.114-0.76,2.982-1.193s1.681-0.922,2.44-1.464c0.759-0.543,1.49-1.157,2.195-1.844s1.438-1.464,2.196-2.331h1.192
	v36.871h-1.084v-35.462H75.202z"/>
<path fill="#FFFFFF" d="M91.145,216.642l18.436-25.973h1.355v26.189h6.67v1.084h-6.67v9.598h-1.084v-9.598H91.145V216.642z
	 M109.742,192.187l-17.514,24.672h17.623v-24.672H109.742z"/>
<circle fill="#FFFFFF" cx="58.224" cy="7.374" r="7.374"/>
<circle fill="#FFFFFF" cx="58.224" cy="21.708" r="3.333"/>
<circle fill="#FFFFFF" cx="38.483" cy="24.708" r="7.374"/>
<circle fill="#FFFFFF" cx="78.825" cy="24.708" r="7.374"/>
<circle fill="#FFFFFF" cx="58.223" cy="43.041" r="7.375"/>
<circle fill="#FFFFFF" cx="70.668" cy="34.26" r="2.782"/>
<circle fill="#FFFFFF" cx="45.858" cy="34.26" r="2.782"/>
<circle fill="#FFFFFF" cx="58.224" cy="80.448" r="7.374"/>
<circle fill="#FFFFFF" cx="58.224" cy="66.114" r="3.333"/>
<circle fill="#FFFFFF" cx="78.825" cy="63.114" r="7.374"/>
<circle fill="#FFFFFF" cx="45.858" cy="53.344" r="2.782"/>
<circle fill="#FFFFFF" cx="70.668" cy="53.562" r="2.782"/>
<circle fill="#FFFFFF" cx="94.892" cy="43.041" r="7.374"/>
<circle fill="#FFFFFF" cx="81.558" cy="43.041" r="3.333"/>
<circle fill="#FFFFFF" cx="20.817" cy="43.041" r="7.374"/>
<circle fill="#FFFFFF" cx="34.151" cy="43.041" r="3.333"/>
<circle fill="#FFFFFF" cx="37.483" cy="63.114" r="7.374"/>
</svg>
